<svg xmlns="http://www.w3.org/2000/svg" width="188.194" height="92.564" viewBox="0 0 188.194 92.564">
  <g id="Group_1962" data-name="Group 1962" transform="translate(-237.095 -361.626)">
    <g id="Group_193" data-name="Group 193" transform="translate(285.652 361.626)">
      <g id="Group_192" data-name="Group 192">
        <path id="Path_279" data-name="Path 279" d="M351.386,361.637l-.515-.01H303.637c-14.624-.011-22.415,4.792-26.454,10.337a24.316,24.316,0,0,0-4.324,14.3c0,3.238.244,9.582,4.767,15.127,4.47,5.484,13.055,10.05,29.295,10.159v3.667a.613.613,0,0,0,1.03.448l14.842-13.834a.612.612,0,0,0,.19-.445.623.623,0,0,0-.19-.448L307.95,387.1a.611.611,0,0,0-1.03.443V391.3c-8.2-.259-12.03-5.178-12.054-10.069.022-5.067,4.153-10.239,12.843-10.266h46.3l.075-.008a.679.679,0,0,0,.548-.284h0a.676.676,0,0,0,.092-.615h0l-2.671-7.959a.682.682,0,0,0-.646-.462h0" transform="translate(-272.858 -361.626)" fill="#fff"/>
        <path id="Path_280" data-name="Path 280" d="M280.078,414.7l.515-.011h44.52c8.691-.026,12.823-5.2,12.843-10.264-.023-4.889-3.853-9.808-12.053-10.069v3.756a.611.611,0,0,1-1.031.443l-14.841-13.83a.624.624,0,0,1-.191-.448.613.613,0,0,1,.191-.445l14.841-13.834a.613.613,0,0,1,1.031.448v3.667c16.24.109,24.825,4.675,29.3,10.159,4.521,5.545,4.764,11.888,4.764,15.127a24.307,24.307,0,0,1-4.324,14.3c-4.039,5.545-11.83,10.347-26.453,10.336l-51.734,0-.072-.008a.681.681,0,0,1-.551-.284h0a.684.684,0,0,1-.092-.615h0l2.672-7.958a.681.681,0,0,1,.645-.462h0" transform="translate(-271.483 -358.691)" fill="#fff"/>
        <text transform="translate(28.526 30.943)" fill="rgba(0,0,0,0)" font-size="10" font-family="Arial"><tspan x="0" y="0"></tspan></text>
      </g>
    </g>
    <g id="Group_194" data-name="Group 194" transform="translate(237.095 438.159)">
      <path id="Path_281" data-name="Path 281" d="M237.1,417.994h3.545a2.7,2.7,0,0,1,2.982,2.687v10.76a2.619,2.619,0,0,1-2.9,2.584H237.1Zm2.057,14.289h.986a1.3,1.3,0,0,0,1.427-1.344v-9.9a1.256,1.256,0,0,0-1.344-1.3h-1.069Z" transform="translate(-237.095 -417.994)" fill="#fff"/>
      <path id="Path_282" data-name="Path 282" d="M245.472,434.025h-2.057V417.994h2.057Z" transform="translate(-234.834 -417.994)" fill="#fff"/>
      <path id="Path_283" data-name="Path 283" d="M248.778,434.025h-2.057V417.994h5.31a1.26,1.26,0,0,1,1.4,1.342v5.9a1.281,1.281,0,0,1-1.384,1.365H251.8l1.993,7.428h-2.308l-2.119-8.52.357-.65h1.658v-5.12h-2.6Z" transform="translate(-233.651 -417.994)" fill="#fff"/>
      <path id="Path_284" data-name="Path 284" d="M258.111,434.025h-5.225V417.994h5.161v1.741h-3.105v5.2h2.916V426.7h-2.916v5.583h3.169Z" transform="translate(-231.446 -417.994)" fill="#fff"/>
      <path id="Path_285" data-name="Path 285" d="M262.372,428.443h2.057V432.7a1.266,1.266,0,0,1-1.26,1.324h-3.986a1.291,1.291,0,0,1-1.321-1.324V419.315a1.288,1.288,0,0,1,1.257-1.321h4.05a1.278,1.278,0,0,1,1.26,1.321v3.378h-2.057v-2.958h-2.457v12.548h2.457Z" transform="translate(-229.666 -417.994)" fill="#fff"/>
      <path id="Path_286" data-name="Path 286" d="M267.488,434.025h-2.057v-14.29h-2.225v-1.741h6.506v1.741h-2.224Z" transform="translate(-227.754 -417.994)" fill="#fff"/>
    </g>
    <path id="Path_287" data-name="Path 287" d="M273.249,425.337v8.688h-1.993V417.994h1.575l2.538,8.434h.295l2.581-8.434h1.51v16.031H277.76v-8.751l-1.948,7.239h-.671Z" transform="translate(12.221 20.165)" fill="#fff"/>
    <path id="Path_288" data-name="Path 288" d="M284.421,434.025l-.486-3.107h-2.893l-.5,3.107H278.5l2.979-16.031H283.6l2.938,16.031Zm-1.828-11.059h-.145l-1.112,6.168h2.308Z" transform="translate(14.813 20.165)" fill="#fff"/>
    <path id="Path_289" data-name="Path 289" d="M287.466,434.025H285.41V417.994h5.307a1.263,1.263,0,0,1,1.408,1.342v5.9a1.284,1.284,0,0,1-1.386,1.365h-.25l1.993,7.428h-2.309l-2.119-8.52.356-.65h1.658v-5.12h-2.6Z" transform="translate(17.284 20.165)" fill="#fff"/>
    <path id="Path_290" data-name="Path 290" d="M293.631,427.456v6.569h-2.057V417.994h2.057v6.1l2.728-6.1h2.369l-3.631,7.574,4.221,8.457h-2.6Z" transform="translate(19.489 20.165)" fill="#fff"/>
    <path id="Path_291" data-name="Path 291" d="M303.119,434.025h-5.225V417.994h5.162v1.741h-3.105v5.2h2.915V426.7h-2.915v5.583h3.168Z" transform="translate(21.75 20.165)" fill="#fff"/>
    <path id="Path_292" data-name="Path 292" d="M306.439,434.025h-2.057v-14.29h-2.223v-1.741h6.5v1.741h-2.224Z" transform="translate(23.276 20.165)" fill="#fff"/>
    <path id="Path_293" data-name="Path 293" d="M309.9,434.025h-2.057V417.994H309.9Z" transform="translate(25.31 20.165)" fill="#fff"/>
    <path id="Path_294" data-name="Path 294" d="M313.062,425.547v8.478h-1.91V417.994h1.068l3.714,8.77v-8.77h1.909v16.031h-1.111Z" transform="translate(26.493 20.165)" fill="#fff"/>
    <path id="Path_295" data-name="Path 295" d="M322.055,427.456h-1.089v-1.742h3.147v7.051a1.107,1.107,0,0,1-1.26,1.26h-3.924a1.236,1.236,0,0,1-1.257-1.344V419.293a1.233,1.233,0,0,1,1.257-1.3h3.924a1.168,1.168,0,0,1,1.26,1.321v3.5h-2.058v-3.085h-2.328v12.548h2.328Z" transform="translate(28.826 20.165)" fill="#fff"/>
    <g id="Group_195" data-name="Group 195" transform="translate(358.117 438.159)">
      <path id="Path_296" data-name="Path 296" d="M328.286,428.527v3.756h1.761v-3.631l-3.419-4.889a1.91,1.91,0,0,1-.4-1.048v-3.422a1.282,1.282,0,0,1,1.257-1.3h3.4a1.222,1.222,0,0,1,1.257,1.342v3.275h-2.056v-2.876h-1.764v2.813l3.272,4.614a2.615,2.615,0,0,1,.547,1.344v4.175a1.258,1.258,0,0,1-1.257,1.344h-3.4a1.253,1.253,0,0,1-1.257-1.324v-4.174Z" transform="translate(-326.23 -417.994)" fill="#fff"/>
      <path id="Path_297" data-name="Path 297" d="M338.874,432.723a1.311,1.311,0,0,1-1.26,1.3h-4.532a1.311,1.311,0,0,1-1.26-1.3V419.293a1.309,1.309,0,0,1,1.26-1.3h4.532a1.309,1.309,0,0,1,1.26,1.3Zm-2.058-12.988H333.88v12.548h2.935Z" transform="translate(-324.23 -417.994)" fill="#fff"/>
      <path id="Path_298" data-name="Path 298" d="M344.227,434.025h-5.622V417.994h2.058v14.289h3.564Z" transform="translate(-321.803 -417.994)" fill="#fff"/>
      <path id="Path_299" data-name="Path 299" d="M345.575,417.994v14.289h2.707V417.994h2.056V432.7a1.23,1.23,0,0,1-1.257,1.324h-4.3a1.21,1.21,0,0,1-1.26-1.324V417.994Z" transform="translate(-320.045 -417.994)" fill="#fff"/>
      <path id="Path_300" data-name="Path 300" d="M353.655,434.025H351.6v-14.29h-2.225v-1.741h6.5v1.741h-2.223Z" transform="translate(-317.95 -417.994)" fill="#fff"/>
      <path id="Path_301" data-name="Path 301" d="M357.118,434.025H355.06V417.994h2.058Z" transform="translate(-315.916 -417.994)" fill="#fff"/>
      <path id="Path_302" data-name="Path 302" d="M365.372,432.723a1.311,1.311,0,0,1-1.26,1.3H359.58a1.313,1.313,0,0,1-1.26-1.3V419.293a1.311,1.311,0,0,1,1.26-1.3h4.532a1.309,1.309,0,0,1,1.26,1.3Zm-2.056-12.988h-2.938v12.548h2.938Z" transform="translate(-314.75 -417.994)" fill="#fff"/>
      <path id="Path_303" data-name="Path 303" d="M367.013,425.547v8.478H365.1V417.994h1.07l3.715,8.77v-8.77H371.8v16.031h-1.111Z" transform="translate(-312.323 -417.994)" fill="#fff"/>
      <path id="Path_304" data-name="Path 304" d="M373.4,428.527v3.756h1.761v-3.631l-3.42-4.889a1.91,1.91,0,0,1-.4-1.048v-3.422a1.282,1.282,0,0,1,1.259-1.3H376a1.223,1.223,0,0,1,1.26,1.342v3.275h-2.056v-2.876h-1.762v2.813l3.272,4.614a2.613,2.613,0,0,1,.546,1.344v4.175a1.256,1.256,0,0,1-1.26,1.344h-3.4a1.254,1.254,0,0,1-1.259-1.324v-4.174Z" transform="translate(-310.09 -417.994)" fill="#fff"/>
    </g>
  </g>
</svg>
