<svg xmlns="http://www.w3.org/2000/svg" width="153.903" height="153.902" viewBox="0 0 153.903 153.902">
  <g id="Group_2754" data-name="Group 2754" transform="translate(-988.423 -1805.363)">
    <path id="Path_5054" data-name="Path 5054" d="M76.952,0A76.95,76.95,0,1,0,153.9,76.952,76.952,76.952,0,0,0,76.952,0m0,32.1A44.848,44.848,0,1,1,32.1,76.952,44.9,44.9,0,0,1,76.952,32.1" transform="translate(988.423 1805.363)" fill="#3c83b5" style="mix-blend-mode: multiply;isolation: isolate"/>
    <path id="Path_5055" data-name="Path 5055" d="M56.849,12A44.848,44.848,0,1,1,12,56.849,44.9,44.9,0,0,1,56.849,12" transform="translate(1008.525 1825.465)" fill="rgba(60,131,181,0.5)"/>
    <rect id="Rectangle_1412" data-name="Rectangle 1412" width="89.697" height="89.697" transform="translate(1020.525 1837.465)" fill="none"/>
    <rect id="Rectangle_1413" data-name="Rectangle 1413" width="153.901" height="153.901" transform="translate(988.423 1805.364)" fill="none"/>
    <rect id="Rectangle_1414" data-name="Rectangle 1414" width="153.902" height="153.902" transform="translate(988.423 1805.363)" fill="none"/>
  </g>
</svg>
