<svg xmlns="http://www.w3.org/2000/svg" xmlns:xlink="http://www.w3.org/1999/xlink" width="91.984" height="91.954" viewBox="0 0 91.984 91.954">
  <defs>
    <clipPath id="clip-path">
      <rect id="Rectangle_1335" data-name="Rectangle 1335" width="91.984" height="91.954" transform="translate(0 0)" fill="none"/>
    </clipPath>
  </defs>
  <g id="Group_2060" data-name="Group 2060" transform="translate(0 0)">
    <g id="Group_2059" data-name="Group 2059" clip-path="url(#clip-path)">
      <path id="Path_5010" data-name="Path 5010" d="M90.46,22.816a5.014,5.014,0,0,0,0-7.1L76.214,1.472a5.014,5.014,0,0,0-7.1,0l-22.6,22.6L26.932,4.493a10.086,10.086,0,0,0-14.246,0L3.121,14.057a10.088,10.088,0,0,0,0,14.246L22.7,47.885,0,70.588V91.932H21.344L44.1,69.179,63.679,88.761a10.081,10.081,0,0,0,14.246,0L87.49,79.2a10.088,10.088,0,0,0,0-14.246L67.908,45.368ZM10.269,21.155l9.515-9.565,6.393,6.394-5.94,5.99,7.1,7.1,5.991-5.991,6.041,6.041L29.8,40.687ZM66.8,58.607,60.81,64.6l7.1,7.1,5.99-5.991L80.291,72.1l-9.564,9.565L51.145,62.081l9.564-9.565ZM17.166,81.864h-7.1v-7.1L58.444,26.39l6.544,6.544.554.554ZM65.542,19.242l7.1-7.1,7.1,7.1-7.1,7.1Z" fill="#003a61"/>
      <path id="Path_5011" data-name="Path 5011" d="M90.512,22.839a5.014,5.014,0,0,0,0-7.1L76.266,1.494a5.016,5.016,0,0,0-7.1,0l-22.6,22.6L22.755,47.907.052,70.61V91.954H21.4L44.149,69.2,67.96,45.39ZM17.218,81.886h-7.1v-7.1L58.5,26.412l6.544,6.544.554.554ZM65.594,19.264l7.1-7.1,7.1,7.1-7.1,7.1Z" fill="#932876"/>
    </g>
  </g>
</svg>
