<svg id="Group_2063" data-name="Group 2063" xmlns="http://www.w3.org/2000/svg" width="112.156" height="107.059" viewBox="0 0 112.156 107.059">
  <path id="Path_5013" data-name="Path 5013" d="M60.1,16.823,69.18,12.9l5.046,8.565,2.244,3.772,4.282.969L90.438,28.4l-.917,9.941-.408,4.334,2.855,3.314,6.576,7.494-6.526,7.545-2.854,3.313.408,4.334.917,9.94L80.8,80.8l-4.283.968-2.243,3.773L69.23,94.108l-9.073-3.924L56.078,88.45,52.05,90.184l-9.074,3.924L37.929,85.6l-2.243-3.772L31.4,80.854l-9.685-2.192.917-9.992.407-4.334-2.854-3.313-6.577-7.495,6.577-7.544,2.854-3.314-.458-4.385-.918-9.89L31.352,26.2l4.283-.969,2.243-3.772L42.925,12.9,52,16.823l4.079,1.733ZM73.411,0,56.078,7.442,38.745,0,29.109,16.262,10.7,20.391l1.734,18.863L0,53.478,12.439,67.7,10.7,86.564l18.4,4.18,9.636,16.314,17.333-7.495,17.333,7.443,9.635-16.262,18.4-4.18L99.717,67.752l12.439-14.274L99.717,39.254l1.733-18.811-18.4-4.181Z" transform="translate(0 0.001)" fill="#003a61"/>
  <path id="Path_5014" data-name="Path 5014" d="M46.341,62.45,34.514,50.572l-7.545,7.6L46.341,77.591,83.76,40.07l-7.545-7.6Z" transform="translate(0 0.001)" fill="#5794c1"/>
</svg>
