<svg xmlns="http://www.w3.org/2000/svg" xmlns:xlink="http://www.w3.org/1999/xlink" width="94.838" height="94.838" viewBox="0 0 94.838 94.838">
  <defs>
    <clipPath id="clip-path">
      <rect id="Rectangle_1667" data-name="Rectangle 1667" width="94.838" height="94.838" transform="translate(0 0)" fill="none"/>
    </clipPath>
  </defs>
  <g id="Group_2848" data-name="Group 2848" transform="translate(0 0)">
    <g id="Group_2847" data-name="Group 2847" clip-path="url(#clip-path)">
      <path id="Path_5384" data-name="Path 5384" d="M84.3,0H10.538A10.569,10.569,0,0,0,0,10.538V84.3A10.569,10.569,0,0,0,10.538,94.838H84.3A10.569,10.569,0,0,0,94.838,84.3V10.538A10.569,10.569,0,0,0,84.3,0m0,84.3H10.537V10.537H84.3Z" fill="#003a61"/>
      <rect id="Rectangle_1663" data-name="Rectangle 1663" width="10.538" height="26.344" transform="translate(21.075 47.419)" fill="#ec4424"/>
      <rect id="Rectangle_1664" data-name="Rectangle 1664" width="10.538" height="52.688" transform="translate(63.225 21.075)" fill="#ec4424"/>
      <rect id="Rectangle_1665" data-name="Rectangle 1665" width="10.538" height="15.806" transform="translate(42.15 57.957)" fill="#ec4424"/>
      <rect id="Rectangle_1666" data-name="Rectangle 1666" width="10.538" height="10.538" transform="translate(42.15 36.882)" fill="#ec4424"/>
    </g>
  </g>
</svg>
