<svg xmlns="http://www.w3.org/2000/svg" xmlns:xlink="http://www.w3.org/1999/xlink" width="109.367" height="104.446" viewBox="0 0 109.367 104.446">
  <defs>
    <clipPath id="clip-path">
      <rect id="Rectangle_1333" data-name="Rectangle 1333" width="109.367" height="104.446" fill="none"/>
    </clipPath>
  </defs>
  <g id="Group_2056" data-name="Group 2056" transform="translate(-19)">
    <g id="Group_2055" data-name="Group 2055" transform="translate(19)" clip-path="url(#clip-path)">
      <path id="Path_5003" data-name="Path 5003" d="M28.982,64.527l6.562-6.562a27.467,27.467,0,0,1-8.2-19.139,25.655,25.655,0,0,1,8.2-19.14l-6.562-6.562a36.527,36.527,0,0,0-10.937,25.7,36.526,36.526,0,0,0,10.937,25.7" fill="#003a61"/>
      <path id="Path_5004" data-name="Path 5004" d="M93.509,0,86.947,6.562a46.22,46.22,0,0,1,0,64.527l6.562,6.562a53.7,53.7,0,0,0,15.858-38.826A56.015,56.015,0,0,0,93.509,0" fill="#003a61"/>
      <path id="Path_5005" data-name="Path 5005" d="M22.42,6.562,15.858,0A56.015,56.015,0,0,0,0,38.825,56.015,56.015,0,0,0,15.858,77.651l6.562-6.562a46.22,46.22,0,0,1,0-64.527" fill="#003a61"/>
      <path id="Path_5006" data-name="Path 5006" d="M80.385,64.527a36.526,36.526,0,0,0,10.937-25.7c-.547-9.3-3.828-18.593-10.937-25.7l-6.562,6.562a27.471,27.471,0,0,1,8.2,19.14,25.652,25.652,0,0,1-8.2,19.139Z" fill="#003a61"/>
      <path id="Path_5007" data-name="Path 5007" d="M63.6,49.106a13.507,13.507,0,0,0,4.757-10.28,13.671,13.671,0,1,0-27.342,0,13.5,13.5,0,0,0,4.758,10.28L27.341,104.445H38.278l3.664-10.936H67.479l3.609,10.936H82.025Zm-5.562,16.16h-6.7L54.683,55.23ZM45.551,82.572l2.182-6.533h13.9l2.182,6.533Z" fill="#ffd337"/>
    </g>
  </g>
</svg>
