<svg xmlns="http://www.w3.org/2000/svg" xmlns:xlink="http://www.w3.org/1999/xlink" width="94.838" height="94.838" viewBox="0 0 94.838 94.838">
  <defs>
    <clipPath id="clip-path">
      <rect id="Rectangle_1340" data-name="Rectangle 1340" width="94.838" height="94.838" transform="translate(0 0)" fill="none"/>
    </clipPath>
    <clipPath id="clip-path-2">
      <rect id="Rectangle_1377" data-name="Rectangle 1377" width="61.611" height="52.11" fill="#707070"/>
    </clipPath>
  </defs>
  <g id="Group_2148" data-name="Group 2148" transform="translate(-1491.99 -1898.806)">
    <g id="Group_2062" data-name="Group 2062" transform="translate(1491.99 1898.806)">
      <g id="Mask_Group_2061" data-name="Mask Group 2061" clip-path="url(#clip-path)">
        <path id="Path_5012" data-name="Path 5012" d="M84.3,0H10.538A10.569,10.569,0,0,0,0,10.538V84.3A10.569,10.569,0,0,0,10.538,94.838H84.3A10.569,10.569,0,0,0,94.838,84.3V10.538A10.569,10.569,0,0,0,84.3,0m0,84.3H10.537V10.537H84.3Z" fill="#003a61"/>
      </g>
    </g>
    <g id="Group_2147" data-name="Group 2147" transform="translate(1508.604 1921.071)">
      <g id="Group_2146" data-name="Group 2146" clip-path="url(#clip-path-2)">
        <path id="Path_5043" data-name="Path 5043" d="M168.613,142.734a4.677,4.677,0,0,0,.731-4.151c-.453-1.493-.568-1.35-8.294-9.075a4.674,4.674,0,0,0-7.546,5.27,19.176,19.176,0,0,1-7.208-3.33,4.676,4.676,0,1,0-5.612,7.482,28.629,28.629,0,0,0,13.257,5.422,4.674,4.674,0,0,0,7.109,6.021C168.988,142.436,168.3,143.155,168.613,142.734Z" transform="translate(-107.934 -99.633)" fill="#707070"/>
        <path id="Path_5044" data-name="Path 5044" d="M61.56,11.135c-.295-2.054-.906-2.229-8.443-9.766a4.674,4.674,0,0,0-7.111,6.019A28.588,28.588,0,0,0,27.066,18.5L19.94,28A19.17,19.17,0,0,1,4.678,35.631a4.677,4.677,0,0,0,0,9.353A28.567,28.567,0,0,0,27.422,33.612l7.126-9.5a19.178,19.178,0,0,1,11.023-7.147,4.674,4.674,0,0,0,7.545,5.273c7.724-7.724,7.346-7.3,7.708-7.836A4.638,4.638,0,0,0,61.56,11.135Z" transform="translate(-0.001 0)" fill="#707070"/>
        <path id="Path_5045" data-name="Path 5045" d="M4.677,41.387A19.2,19.2,0,0,1,16.124,45.2a4.677,4.677,0,1,0,5.612-7.482A28.611,28.611,0,0,0,4.677,32.034a4.677,4.677,0,1,0,0,9.353" transform="translate(0 -24.908)" fill="#707070"/>
      </g>
    </g>
  </g>
</svg>
